<svg xmlns="http://www.w3.org/2000/svg" width="40" height="40" viewBox="0 0 40 40" fill="none"><circle cx="20" cy="20" r="19" fill="#FFF7EC" stroke="black" stroke-width="2"></circle><path fill-rule="evenodd" clip-rule="evenodd" d="M10.5001 14.75C9.72658 14.75 8.92718 15.2497 8.73991 16.3733C8.67181 16.7818 8.28539 17.0578 7.87681 16.9897C7.46824 16.9216 7.19222 16.5352 7.26032 16.1266C7.57306 14.2503 9.02366 13.25 10.5001 13.25C11.9766 13.25 13.4272 14.2503 13.7399 16.1266C13.808 16.5352 13.532 16.9216 13.1234 16.9897C12.7148 17.0578 12.3284 16.7818 12.2603 16.3732C12.0731 15.2497 11.2737 14.75 10.5001 14.75Z" fill="#18181B"></path><path fill-rule="evenodd" clip-rule="evenodd" d="M29.5001 14.75C28.7266 14.75 27.9272 15.2497 27.7399 16.3733C27.6718 16.7818 27.2854 17.0578 26.8768 16.9897C26.4682 16.9216 26.1922 16.5352 26.2603 16.1266C26.5731 14.2503 28.0237 13.25 29.5001 13.25C30.9766 13.25 32.4272 14.2503 32.7399 16.1266C32.808 16.5352 32.532 16.9216 32.1234 16.9897C31.7148 17.0578 31.3284 16.7818 31.2603 16.3732C31.0731 15.2497 30.2737 14.75 29.5001 14.75Z" fill="#18181B"></path><path fill-rule="evenodd" clip-rule="evenodd" d="M20.125 29.375C17.0929 29.375 13.8925 28.0923 11.0068 25.4471C10.7015 25.1672 10.227 25.1879 9.94714 25.4932C9.66724 25.7985 9.68787 26.273 9.99321 26.5529C13.1075 29.4076 16.6571 30.875 20.125 30.875C23.6006 30.875 26.9227 29.4 29.555 26.5045C29.8336 26.198 29.811 25.7237 29.5045 25.445C29.198 25.1664 28.7237 25.189 28.445 25.4955C26.0773 28.1 23.1494 29.375 20.125 29.375Z" fill="#18181B"></path><path d="M12 23.5C12 25.433 10.433 27 8.5 27C6.567 27 5 25.433 5 23.5C5 21.567 6.567 20 8.5 20C10.433 20 12 21.567 12 23.5Z" fill="#FFCAD2"></path><path fill-rule="evenodd" clip-rule="evenodd" d="M8.5 26C9.88071 26 11 24.8807 11 23.5C11 22.1193 9.88071 21 8.5 21C7.11929 21 6 22.1193 6 23.5C6 24.8807 7.11929 26 8.5 26ZM8.5 27C10.433 27 12 25.433 12 23.5C12 21.567 10.433 20 8.5 20C6.567 20 5 21.567 5 23.5C5 25.433 6.567 27 8.5 27Z" fill="black"></path><path d="M35 23.5C35 25.433 33.433 27 31.5 27C29.567 27 28 25.433 28 23.5C28 21.567 29.567 20 31.5 20C33.433 20 35 21.567 35 23.5Z" fill="#FFCAD2"></path><path fill-rule="evenodd" clip-rule="evenodd" d="M31.5 26C32.8807 26 34 24.8807 34 23.5C34 22.1193 32.8807 21 31.5 21C30.1193 21 29 22.1193 29 23.5C29 24.8807 30.1193 26 31.5 26ZM31.5 27C33.433 27 35 25.433 35 23.5C35 21.567 33.433 20 31.5 20C29.567 20 28 21.567 28 23.5C28 25.433 29.567 27 31.5 27Z" fill="black"></path></svg>