<svg xmlns="http://www.w3.org/2000/svg" width="102" height="101" viewBox="0 0 102 101" fill="none"><g clip-path="url(#clip0_198_4851)"><path d="M88.5826 60.2844C83.021 81.0406 61.6861 93.3583 40.9299 87.7967C20.1737 82.2351 7.85598 60.9002 13.4176 40.144C18.9792 19.3878 40.314 7.0701 61.0703 12.6317C81.8265 18.1933 94.1442 39.5282 88.5826 60.2844Z" fill="#FFD8A6"></path><path fill-rule="evenodd" clip-rule="evenodd" d="M60.529 14.6525C40.8886 9.38991 20.7008 21.0454 15.4382 40.6857C10.1755 60.3261 21.831 80.5139 41.4714 85.7766C61.1117 91.0392 81.2996 79.3837 86.5622 59.7434C91.8248 40.103 80.1693 19.9151 60.529 14.6525ZM11.3972 39.603C17.2578 17.7308 39.7396 4.75097 61.6117 10.6116C83.4839 16.4722 96.4637 38.954 90.6031 60.8261C84.7425 82.6982 62.2607 95.6781 40.3886 89.8175C18.5165 83.9569 5.53659 61.4751 11.3972 39.603ZM40.4377 39.9258L32.7931 30.5679L36.0329 27.9212L47.8318 42.3644L30.7965 46.6904L29.7668 42.6356L40.4377 39.9258ZM75.5907 38.5207L77.0731 42.4327L65.7737 46.7146L73.6601 54.3968L70.741 57.3935L58.151 45.1294L75.5907 38.5207ZM46.025 72.2181C36.6217 69.5809 27.9225 62.1888 26.404 51.7085L30.5443 51.1087C31.7611 59.507 38.862 65.8643 47.1547 68.1901C55.437 70.5129 64.1212 68.623 68.6267 61.5203L72.1594 63.7612C66.3464 72.9251 55.4388 74.8583 46.025 72.2181Z" fill="#18181B"></path></g><defs><clipPath id="clip0_198_4851"><rect width="82" height="82" fill="white" transform="translate(22.0088) rotate(15)"></rect></clipPath></defs></svg>