<svg xmlns="http://www.w3.org/2000/svg" width="557" height="558" viewBox="0 0 557 558" fill="none"><g clip-path="url(#clip0_198_4624)"><path d="M468.313 503.213C460.922 506.406 453.17 508.143 445.062 508.423C436.95 508.704 429 507.304 421.207 504.225C413.415 501.145 406.16 496.106 399.445 489.108C392.728 482.11 386.968 473.051 382.162 461.925C376.518 448.863 373.77 436.007 373.922 423.354C374.072 410.706 377.732 399.146 384.905 388.68C392.074 378.215 403.247 369.704 418.417 363.15C432.031 357.269 444.752 354.845 456.583 355.87C468.413 356.9 478.969 361.128 488.255 368.548C497.539 375.973 505.032 386.28 510.731 399.472C514.197 407.494 516.328 415.282 517.133 422.837C517.936 430.397 517.096 437.091 514.616 442.919C512.133 448.75 507.587 453.092 500.974 455.949C495.398 458.358 490.207 458.989 485.405 457.841C480.6 456.693 476.945 454.283 474.434 450.609C472.924 456.02 470.773 460.748 467.984 464.792C465.192 468.84 461.138 472.009 455.823 474.305C451.803 476.042 447.578 476.946 443.148 477.018C438.715 477.091 434.623 475.982 430.864 473.692C427.105 471.402 424.109 467.671 421.873 462.496C419.247 456.418 418.863 450.904 420.727 445.955C422.588 441.006 426.162 436.549 431.447 432.575C436.732 428.604 443.134 424.993 450.655 421.744L456.684 419.139L455.427 416.229C453.471 411.703 450.74 408.854 447.233 407.682C443.728 406.513 439.251 407.101 433.806 409.454C429.916 411.135 426.967 412.948 424.96 414.887C422.951 416.831 421.416 418.53 420.354 419.985C419.29 421.445 418.24 422.395 417.204 422.843C416.037 423.347 414.716 423.227 413.24 422.483C411.765 421.739 410.445 420.737 409.285 419.472C408.124 418.211 407.348 417.125 406.957 416.219C405.84 413.633 406.301 410.786 408.344 407.677C410.385 404.572 413.261 401.524 416.974 398.538C420.682 395.554 424.743 393.11 429.153 391.205C434.726 388.797 440.299 387.54 445.871 387.435C451.441 387.331 456.511 388.558 461.076 391.111C465.643 393.667 469.182 397.854 471.697 403.674L485.862 436.463C487.833 439.604 489.741 441.618 491.589 442.507C493.436 443.4 495.201 443.479 496.887 442.75C499.479 441.63 501.102 439.778 501.756 437.193C502.407 434.61 502.462 431.708 501.919 428.489C501.373 425.272 500.547 422.024 499.438 418.741C498.328 415.461 497.271 412.655 496.265 410.327C488.834 393.127 479.216 381.548 467.412 375.596C455.61 369.644 441.345 370.281 424.619 377.507C414.895 381.709 407.419 386.665 402.195 392.376C396.967 398.088 393.573 404.389 392.014 411.279C390.451 418.17 390.299 425.297 391.557 432.657C392.812 440.021 395.035 447.385 398.22 454.758C401.182 461.615 404.729 467.871 408.867 473.526C413.003 479.185 417.79 483.679 423.23 487.005C428.666 490.333 434.886 492.175 441.886 492.528C448.882 492.88 456.664 491.209 465.221 487.512C470.405 485.272 474.438 483.03 477.318 480.789C480.193 478.547 482.489 476.558 484.202 474.822C485.911 473.084 487.416 471.937 488.714 471.376C490.787 470.481 492.733 470.712 494.555 472.076C496.374 473.438 497.564 474.766 498.123 476.06C499.016 478.128 498.585 480.426 496.83 482.95C495.071 485.473 492.525 488.033 489.184 490.627C485.842 493.223 482.306 495.632 478.576 497.858C474.842 500.083 471.424 501.869 468.312 503.213L468.313 503.213ZM454.708 458.901C457.689 457.613 460.14 455.633 462.065 452.96C463.986 450.288 465.241 447.408 465.829 444.312C466.415 441.22 466.123 438.314 464.949 435.598L462.351 429.584L457.683 431.6C453.274 433.505 449.615 435.546 446.711 437.722C443.804 439.899 441.913 442.291 441.039 444.892C440.163 447.497 440.426 450.416 441.822 453.648C443.108 456.625 444.893 458.537 447.187 459.388C449.477 460.241 451.985 460.078 454.708 458.901Z" fill="#FFBC5A"></path></g><g clip-path="url(#clip1_198_4624)"><path d="M139.579 442.876C135.987 445.381 132.891 446.309 130.285 445.663C127.68 445.018 124.838 442.488 121.755 438.068C117.23 431.579 114.143 425.829 112.497 420.82C110.851 415.811 110.089 411.264 110.215 407.174C110.337 403.087 110.72 399.587 111.361 396.677C111.904 393.634 112.722 390.394 113.819 386.959C114.915 383.529 115.761 379.962 116.362 376.258C116.962 372.559 116.99 368.845 116.444 365.118C115.898 361.396 114.424 357.807 112.016 354.354C107.877 348.419 102.803 345.339 96.7962 345.113C90.7912 344.89 84.6092 346.994 78.2594 351.423C73.2882 354.89 69.9617 358.287 68.2801 361.615C66.5985 364.943 65.7399 368.057 65.7086 370.95C65.6762 373.849 65.4855 376.445 65.1361 378.738C64.7858 381.036 63.4379 383.001 61.0915 384.637C58.881 386.179 56.0247 386.94 52.5228 386.919C49.0174 386.901 46.1126 385.233 43.8015 381.92C41.4904 378.606 40.4622 374.042 40.7126 368.22C40.9651 362.402 42.9799 356.172 46.7659 349.529C50.5488 342.889 56.6525 336.631 65.0769 330.756C73.7766 324.688 82.4201 320.969 91.008 319.597C99.5955 318.225 107.445 318.961 114.557 321.798C121.668 324.64 127.535 329.37 132.157 335.997C135.818 341.246 138.195 346.717 139.296 352.413C140.394 358.112 140.769 363.651 140.414 369.026C140.059 374.407 139.32 379.231 138.196 383.503C137.07 387.78 136.278 391.204 135.819 393.78C134.335 398.716 133.831 403.07 134.306 406.841C134.784 410.616 135.942 414.118 137.784 417.345C139.624 420.578 141.944 424.194 144.736 428.197C145.988 429.993 146.476 432.168 146.203 434.715C145.929 437.268 143.721 439.986 139.579 442.875L139.579 442.876ZM169.623 485.953C165.756 488.651 161.491 489.523 156.823 488.57C152.158 487.619 148.523 485.277 145.923 481.549C143.228 477.685 142.296 473.41 143.132 468.719C143.967 464.033 146.25 460.387 149.978 457.787C153.982 454.995 158.295 454.04 162.913 454.922C167.533 455.808 171.19 458.183 173.886 462.046C176.485 465.774 177.428 469.995 176.708 474.701C175.99 479.411 173.626 483.161 169.623 485.953L169.623 485.953Z" fill="#FFBC5A"></path></g><g clip-path="url(#clip2_198_4624)"><path d="M367.098 48.9873H186.509C172.506 48.9873 161.153 60.3358 161.153 74.335V483.667C161.153 497.666 172.506 509.014 186.509 509.014H367.098C381.102 509.014 392.454 497.666 392.454 483.667V74.335C392.454 60.3358 381.102 48.9873 367.098 48.9873Z" fill="#18181B"></path><path d="M367.098 510.915H186.509C171.479 510.915 159.251 498.691 159.251 483.666V74.3347C159.251 59.3096 171.479 47.0859 186.509 47.0859H367.098C382.128 47.0859 394.356 59.3096 394.356 74.3347V483.666C394.356 498.691 382.128 510.915 367.098 510.915ZM186.509 50.8881C173.576 50.8881 163.055 61.4061 163.055 74.3347V483.666C163.055 496.595 173.576 507.113 186.509 507.113H367.098C380.031 507.113 390.552 496.595 390.552 483.666V74.3347C390.552 61.4061 380.031 50.8881 367.098 50.8881H186.509Z" fill="#18181B"></path><path d="M386.279 48.9873H205.69C191.686 48.9873 180.334 60.3358 180.334 74.335V483.667C180.334 497.666 191.686 509.014 205.69 509.014H386.279C400.282 509.014 411.635 497.666 411.635 483.667V74.335C411.635 60.3358 400.282 48.9873 386.279 48.9873Z" fill="#FEE5F8"></path><path d="M319.088 61.1992H272.88C268.734 61.1992 265.372 64.5596 265.372 68.7049C265.372 72.8503 268.734 76.2106 272.88 76.2106H319.088C323.235 76.2106 326.597 72.8503 326.597 68.7049C326.597 64.5596 323.235 61.1992 319.088 61.1992Z" fill="#18181B"></path><path d="M319.089 78.1114H272.881C267.692 78.1114 263.471 73.8915 263.471 68.7046C263.471 63.5177 267.692 59.2979 272.881 59.2979H319.089C324.277 59.2979 328.499 63.5177 328.499 68.7046C328.499 73.8915 324.277 78.1114 319.089 78.1114ZM272.881 63.1C269.789 63.1 267.274 65.6142 267.274 68.7046C267.274 71.795 269.789 74.3092 272.881 74.3092H319.089C322.18 74.3092 324.695 71.795 324.695 68.7046C324.695 65.6142 322.18 63.1 319.089 63.1H272.881Z" fill="#18181B"></path><path d="M385.935 510.915H205.347C190.317 510.915 178.089 498.691 178.089 483.666V74.3347C178.089 59.3096 190.317 47.0859 205.347 47.0859H385.935C400.965 47.0859 413.193 59.3096 413.193 74.3347V483.666C413.193 498.691 400.965 510.915 385.935 510.915ZM205.347 50.8881C192.414 50.8881 181.892 61.4061 181.892 74.3347V483.666C181.892 496.595 192.414 507.113 205.347 507.113H385.935C398.868 507.113 409.39 496.595 409.39 483.666V74.3347C409.39 61.4061 398.868 50.8881 385.935 50.8881H205.347Z" fill="#18181B"></path><path d="M333.034 500.089H258.934C258.43 500.089 257.946 499.889 257.59 499.532C257.233 499.176 257.033 498.692 257.033 498.188C257.033 497.684 257.233 497.2 257.59 496.844C257.946 496.487 258.43 496.287 258.934 496.287H333.034C333.538 496.287 334.022 496.487 334.379 496.844C334.735 497.2 334.936 497.684 334.936 498.188C334.936 498.692 334.735 499.176 334.379 499.532C334.022 499.889 333.538 500.089 333.034 500.089Z" fill="#18181B"></path></g><g clip-path="url(#clip3_198_4624)"><path d="M228.512 245.105C241.664 245.105 252.325 234.444 252.325 221.294C252.325 208.143 241.664 197.482 228.512 197.482C215.361 197.482 204.699 208.143 204.699 221.294C204.699 234.444 215.361 245.105 228.512 245.105Z" fill="#FF730D"></path><path d="M228.512 247.005C214.334 247.005 202.799 235.471 202.799 221.294C202.799 207.116 214.334 195.582 228.512 195.582C242.69 195.582 254.225 207.116 254.225 221.294C254.225 235.471 242.69 247.005 228.512 247.005ZM228.512 199.382C216.429 199.382 206.599 209.211 206.599 221.293C206.599 233.375 216.429 243.204 228.512 243.204C240.594 243.204 250.424 233.375 250.424 221.293C250.424 209.212 240.594 199.382 228.512 199.382Z" fill="#18181B"></path><path d="M364.187 245.105C377.339 245.105 388 234.444 388 221.294C388 208.143 377.339 197.482 364.187 197.482C351.036 197.482 340.375 208.143 340.375 221.294C340.375 234.444 351.036 245.105 364.187 245.105Z" fill="#FF730D"></path><path d="M364.187 247.005C350.009 247.005 338.474 235.471 338.474 221.294C338.474 207.116 350.009 195.582 364.187 195.582C378.365 195.582 389.9 207.116 389.9 221.294C389.9 235.471 378.365 247.005 364.187 247.005ZM364.187 199.382C352.105 199.382 342.274 209.211 342.274 221.293C342.274 233.375 352.105 243.204 364.187 243.204C376.27 243.204 386.1 233.375 386.1 221.293C386.1 209.212 376.27 199.382 364.187 199.382Z" fill="#18181B"></path><path d="M296.349 280.138C334.189 280.138 364.864 249.465 364.864 211.628C364.864 173.79 334.189 143.117 296.349 143.117C258.51 143.117 227.835 173.79 227.835 211.628C227.835 249.465 258.51 280.138 296.349 280.138Z" fill="#FFF7EC"></path><path d="M296.349 282.038C277.541 282.038 259.859 274.715 246.559 261.416C233.259 248.117 225.935 230.435 225.935 211.628C225.935 192.821 233.259 175.139 246.559 161.841C259.858 148.542 277.541 141.218 296.349 141.218C315.158 141.218 332.841 148.542 346.14 161.841C359.44 175.139 366.764 192.821 366.764 211.628C366.764 230.436 359.44 248.117 346.14 261.416C332.841 274.715 315.158 282.038 296.349 282.038ZM296.349 145.017C259.618 145.017 229.735 174.899 229.735 211.628C229.735 248.357 259.618 278.238 296.349 278.238C333.081 278.238 362.964 248.357 362.964 211.628C362.964 174.899 333.081 145.017 296.349 145.017Z" fill="#18181B"></path><path d="M298.25 143.118H294.449C294.449 130.225 300.925 118.306 311.771 111.233C323.035 103.889 337.075 103.017 350.292 108.842L348.759 112.319C336.74 107.023 324.015 107.787 313.847 114.417C304.08 120.785 298.25 131.514 298.25 143.118V143.118Z" fill="#18181B"></path><path d="M329.628 184.699H263.071C251.518 184.699 242.152 194.064 242.152 205.616C242.152 217.168 251.518 226.533 263.071 226.533H329.628C341.181 226.533 350.546 217.168 350.546 205.616C350.546 194.064 341.181 184.699 329.628 184.699Z" fill="#18181B"></path><path d="M329.628 228.433H263.071C250.489 228.433 240.252 218.198 240.252 205.617C240.252 193.035 250.489 182.8 263.071 182.8H329.628C342.21 182.8 352.447 193.035 352.447 205.617C352.447 218.198 342.21 228.433 329.628 228.433ZM263.071 186.6C252.584 186.6 244.053 195.13 244.053 205.616C244.053 216.102 252.584 224.633 263.071 224.633H329.628C340.115 224.633 348.646 216.102 348.646 205.616C348.646 195.13 340.115 186.6 329.628 186.6H263.071Z" fill="#18181B"></path><path d="M254.97 206.466H259.021V210.517C259.021 211.566 258.169 212.417 257.121 212.417H254.97C254.466 212.417 253.982 212.217 253.626 211.861C253.27 211.504 253.07 211.021 253.069 210.517V208.367C253.069 207.318 253.921 206.466 254.97 206.466ZM260.921 200.515H264.972V204.566C264.972 205.615 264.121 206.466 263.072 206.466H259.021V202.416C259.021 201.367 259.872 200.515 260.921 200.515ZM270.924 200.515H274.975C276.024 200.515 276.875 201.367 276.875 202.416V206.466H272.824C272.32 206.466 271.837 206.266 271.481 205.91C271.124 205.553 270.924 205.07 270.924 204.566V200.515ZM276.875 206.466H280.926C281.975 206.466 282.826 207.318 282.826 208.367V210.517C282.826 211.566 281.975 212.417 280.926 212.417H278.775C278.271 212.417 277.788 212.217 277.432 211.861C277.076 211.504 276.875 211.021 276.875 210.517V206.466ZM266.873 194.564H269.024C270.072 194.564 270.924 195.416 270.924 196.465V200.515H264.972L264.972 196.465C264.972 195.416 265.824 194.564 266.873 194.564ZM337.73 212.418H335.579C335.075 212.417 334.592 212.217 334.235 211.861C333.879 211.505 333.679 211.022 333.678 210.518V206.467H337.73C338.778 206.467 339.63 207.318 339.63 208.367V210.518C339.63 211.566 338.778 212.418 337.73 212.418ZM333.678 206.466H329.627C329.123 206.466 328.64 206.266 328.284 205.91C327.927 205.553 327.727 205.07 327.727 204.566V200.515H331.778C332.827 200.515 333.678 201.367 333.678 202.416V206.466ZM319.875 206.466H315.824V202.416C315.824 201.367 316.676 200.515 317.724 200.515H321.775V204.566C321.775 205.615 320.924 206.466 319.875 206.466ZM313.924 212.418H311.773C311.269 212.417 310.786 212.217 310.429 211.861C310.073 211.505 309.873 211.022 309.872 210.518V208.367C309.872 207.318 310.724 206.467 311.773 206.467H315.824V210.518C315.824 211.566 314.972 212.418 313.924 212.418ZM327.727 200.515H321.775V196.465C321.775 195.416 322.627 194.564 323.676 194.564H325.827C326.875 194.564 327.727 195.416 327.727 196.465V200.515Z" fill="white"></path></g><g clip-path="url(#clip4_198_4624)"><path d="M431.042 83.6719C407.272 83.6719 388.003 102.941 388.003 126.711C388.003 135.061 390.383 142.854 394.499 149.453L394.497 149.454L392.093 165.66L408.298 163.256L408.3 163.254C414.899 167.369 422.692 169.75 431.042 169.75C454.812 169.75 474.081 150.48 474.081 126.711C474.081 102.941 454.812 83.6719 431.042 83.6719Z" fill="white"></path><path d="M431.042 171.651C422.86 171.651 414.874 169.436 407.899 165.237L392.372 167.54C392.078 167.584 391.779 167.558 391.497 167.465C391.215 167.372 390.959 167.214 390.749 167.004C390.539 166.794 390.381 166.538 390.288 166.256C390.195 165.975 390.169 165.675 390.213 165.381L392.516 149.855C388.318 142.88 386.102 134.894 386.102 126.712C386.102 101.931 406.262 81.7715 431.042 81.7715C455.822 81.7715 475.982 101.932 475.982 126.712C475.982 151.491 455.822 171.651 431.042 171.651ZM408.301 161.355C408.656 161.354 409.004 161.454 409.306 161.642C415.818 165.703 423.334 167.85 431.042 167.85C453.726 167.85 472.18 149.395 472.18 126.712C472.18 104.028 453.725 85.5729 431.042 85.5729C408.358 85.5729 389.903 104.027 389.903 126.712C389.903 134.419 392.05 141.935 396.112 148.448C396.367 148.858 396.457 149.35 396.363 149.823L394.349 163.404L407.956 161.386C408.069 161.365 408.185 161.355 408.301 161.355L408.301 161.355Z" fill="#18181B"></path><path d="M441.907 110.864C437.207 110.864 433.123 113.584 431.042 117.582C428.96 113.584 424.876 110.864 420.176 110.864C413.365 110.864 407.843 116.573 407.843 123.616C407.843 138.14 431.042 148.476 431.042 148.476C431.042 148.476 454.24 138.14 454.24 123.616C454.24 116.573 448.719 110.864 441.907 110.864Z" fill="#FF9FAC"></path><path d="M431.042 150.376C430.775 150.376 430.512 150.32 430.268 150.212C429.275 149.769 405.942 139.195 405.942 123.616C405.942 115.537 412.328 108.964 420.176 108.964C424.418 108.964 428.368 110.895 431.042 114.15C433.715 110.895 437.666 108.964 441.907 108.964C449.756 108.964 456.141 115.537 456.141 123.616C456.141 139.195 432.809 149.769 431.816 150.212C431.572 150.32 431.308 150.376 431.042 150.376ZM420.176 112.765C414.424 112.765 409.744 117.633 409.744 123.616C409.744 135.335 427.128 144.467 431.041 146.373C434.952 144.464 452.34 135.315 452.34 123.616C452.34 117.633 447.66 112.765 441.907 112.765C438.074 112.765 434.556 114.947 432.728 118.46C432.567 118.769 432.325 119.027 432.028 119.207C431.73 119.388 431.389 119.483 431.042 119.483C430.694 119.483 430.353 119.388 430.056 119.207C429.759 119.027 429.517 118.769 429.356 118.46C427.527 114.947 424.01 112.765 420.176 112.765Z" fill="#18181B"></path></g><g clip-path="url(#clip5_198_4624)"><path d="M399.153 346.474H221.582C215.327 346.474 210.256 341.377 210.256 335.089V319.879C210.256 313.591 215.327 308.494 221.582 308.494H376.501C382.756 308.494 387.827 313.591 387.827 319.879V335.089L399.153 346.474Z" fill="#FFEDD3"></path><path d="M399.152 348.371H221.582C214.296 348.371 208.369 342.413 208.369 335.089V319.879C208.369 312.555 214.296 306.597 221.582 306.597H376.501C383.787 306.597 389.714 312.555 389.714 319.879V334.303L400.487 345.132C400.751 345.398 400.931 345.736 401.004 346.104C401.077 346.472 401.04 346.854 400.897 347.2C400.754 347.547 400.512 347.844 400.201 348.052C399.891 348.26 399.526 348.371 399.152 348.371ZM221.582 310.392C216.378 310.392 212.144 314.648 212.144 319.879V335.089C212.144 340.32 216.378 344.576 221.582 344.576H394.596L386.492 336.431C386.138 336.075 385.939 335.592 385.94 335.089V319.879C385.94 314.648 381.706 310.392 376.502 310.392H221.582Z" fill="#18181B"></path></g><g clip-path="url(#clip6_198_4624)"><path d="M239.373 407.491H354.403C360.66 407.491 365.732 402.393 365.732 396.106V380.896C365.732 374.608 360.66 369.511 354.403 369.511H262.03C255.773 369.511 250.701 374.608 250.701 380.896V396.106L239.373 407.491Z" fill="#FFBB6E"></path><path d="M354.403 409.388H239.373C238.999 409.388 238.634 409.277 238.323 409.069C238.013 408.86 237.771 408.564 237.628 408.217C237.485 407.87 237.447 407.489 237.52 407.12C237.593 406.752 237.773 406.414 238.037 406.149L248.813 395.319V380.896C248.813 373.572 254.742 367.613 262.03 367.613H354.403C361.691 367.613 367.62 373.572 367.62 380.896V396.106C367.62 403.43 361.691 409.388 354.403 409.388ZM243.931 405.593H354.403C359.609 405.593 363.844 401.337 363.844 396.106V380.896C363.844 375.664 359.609 371.408 354.403 371.408H262.03C256.824 371.408 252.589 375.664 252.589 380.896V396.106C252.589 396.609 252.391 397.091 252.037 397.448L243.931 405.593Z" fill="#18181B"></path></g><g clip-path="url(#clip7_198_4624)"><path d="M380.884 429.527H210.295C199.793 429.527 191.28 438.081 191.28 448.632C191.28 459.184 199.793 467.737 210.295 467.737H380.884C391.386 467.737 399.899 459.184 399.899 448.632C399.899 438.081 391.386 429.527 380.884 429.527Z" fill="#FFEDD3"></path><path d="M380.884 469.646H210.295C198.762 469.646 189.38 460.22 189.38 448.632C189.38 437.045 198.762 427.618 210.295 427.618H380.884C392.417 427.618 401.799 437.045 401.799 448.632C401.799 460.219 392.417 469.646 380.884 469.646ZM210.295 431.436C200.858 431.436 193.18 439.15 193.18 448.632C193.18 458.114 200.858 465.828 210.295 465.828H380.884C390.321 465.828 397.999 458.114 397.999 448.632C397.999 439.15 390.321 431.436 380.884 431.436H210.295V431.436Z" fill="#18181B"></path><path d="M380.884 465.829C390.337 465.829 397.999 458.13 397.999 448.633C397.999 439.135 390.337 431.437 380.884 431.437C371.432 431.437 363.769 439.135 363.769 448.633C363.769 458.13 371.432 465.829 380.884 465.829Z" fill="#FF730D"></path><path d="M388.969 448.632L376.895 442.688L379.606 448.632L376.895 454.576L388.969 448.632Z" fill="white"></path><path d="M376.895 456.485C376.577 456.485 376.263 456.405 375.984 456.252C375.704 456.098 375.468 455.877 375.296 455.607C375.124 455.338 375.022 455.03 374.999 454.711C374.977 454.391 375.035 454.072 375.168 453.781L377.516 448.633L375.168 443.484C375.004 443.126 374.955 442.726 375.027 442.338C375.099 441.951 375.288 441.596 375.569 441.321C375.849 441.046 376.208 440.865 376.595 440.803C376.982 440.741 377.379 440.801 377.731 440.974L389.804 446.918C390.124 447.075 390.392 447.319 390.58 447.623C390.768 447.926 390.868 448.275 390.868 448.633C390.868 448.99 390.768 449.339 390.58 449.643C390.392 449.946 390.124 450.19 389.804 450.347L377.731 456.291C377.471 456.419 377.185 456.485 376.895 456.485ZM380.84 446.757L381.333 447.837C381.447 448.087 381.506 448.358 381.506 448.633C381.506 448.907 381.447 449.178 381.333 449.428L380.841 450.508L384.65 448.633L380.84 446.757Z" fill="white"></path><path d="M211.14 457.69C212.852 457.69 214.239 456.296 214.239 454.576C214.239 452.857 212.852 451.463 211.14 451.463C209.429 451.463 208.042 452.857 208.042 454.576C208.042 456.296 209.429 457.69 211.14 457.69Z" fill="#18181B"></path><path d="M222.925 457.69C224.636 457.69 226.024 456.296 226.024 454.576C226.024 452.857 224.636 451.463 222.925 451.463C221.214 451.463 219.826 452.857 219.826 454.576C219.826 456.296 221.214 457.69 222.925 457.69Z" fill="#18181B"></path><path d="M234.71 457.69C236.421 457.69 237.809 456.296 237.809 454.576C237.809 452.857 236.421 451.463 234.71 451.463C232.998 451.463 231.611 452.857 231.611 454.576C231.611 456.296 232.998 457.69 234.71 457.69Z" fill="#18181B"></path></g><g clip-path="url(#clip8_198_4624)"><path d="M59.7984 498.349C63.1063 502.013 67.3215 504.925 71.9881 506.77C72.4653 506.959 72.9892 506.995 73.4876 506.873C73.986 506.751 74.4344 506.477 74.7708 506.089L77.8762 502.506C78.3747 501.933 79.0005 501.485 79.7033 501.198C80.4061 500.912 81.1662 500.794 81.9226 500.855C82.679 500.919 83.4099 501.16 84.0566 501.558C84.7032 501.956 85.2476 502.501 85.646 503.148L88.1288 507.199C88.3973 507.637 88.7953 507.981 89.2675 508.183C89.7398 508.386 90.2631 508.436 90.765 508.327C93.2706 507.785 95.6486 506.987 97.8321 505.953C100.019 504.919 102.145 503.585 104.152 501.991C104.554 501.671 104.847 501.235 104.991 500.741C105.135 500.248 105.122 499.722 104.955 499.236L103.407 494.744C103.161 494.025 103.087 493.258 103.19 492.505C103.294 491.752 103.572 491.033 104.004 490.408C104.437 489.783 105.01 489.27 105.678 488.908C106.345 488.547 107.088 488.347 107.847 488.326L112.582 488.198C113.095 488.185 113.591 488.012 114.001 487.704C114.412 487.396 114.717 486.968 114.875 486.479C116.416 481.7 116.846 476.589 116.121 471.7C116.045 471.192 115.814 470.72 115.459 470.349C115.105 469.977 114.644 469.726 114.14 469.628L109.461 468.72C108.716 468.574 108.016 468.255 107.416 467.789C106.817 467.323 106.335 466.722 106.009 466.035C105.354 464.647 105.399 463.009 106.13 461.657L108.401 457.462C108.645 457.011 108.744 456.494 108.683 455.984C108.622 455.473 108.404 454.995 108.06 454.614C104.752 450.95 100.537 448.038 95.8706 446.193C95.3934 446.004 94.8694 445.968 94.371 446.09C93.8726 446.213 93.4243 446.486 93.0879 446.874L89.9824 450.457C89.484 451.03 88.8582 451.478 88.1554 451.765C87.4526 452.051 86.6925 452.169 85.936 452.108C85.1796 452.044 84.4488 451.803 83.8021 451.405C83.1555 451.007 82.6111 450.462 82.2127 449.815L79.7307 445.765C79.462 445.327 79.064 444.983 78.5917 444.781C78.1194 444.579 77.596 444.528 77.0939 444.637C74.5881 445.179 72.2104 445.978 70.027 447.011C67.8407 448.046 65.7144 449.379 63.7075 450.973C63.3053 451.293 63.0121 451.729 62.8683 452.223C62.7245 452.716 62.7372 453.242 62.9046 453.728L64.452 458.22C64.6982 458.939 64.7725 459.706 64.669 460.46C64.5654 461.213 64.2868 461.931 63.8557 462.557C63.4223 463.181 62.8487 463.694 62.1812 464.056C61.5136 464.417 60.7707 464.617 60.012 464.639L55.2772 464.766C54.7643 464.78 54.2683 464.953 53.8576 465.261C53.4469 465.569 53.1418 465.997 52.9842 466.486C51.4442 471.268 51.0136 476.379 51.7386 481.264C51.814 481.773 52.0451 482.245 52.3999 482.616C52.7548 482.987 53.2159 483.239 53.7196 483.337L58.3986 484.244C59.1435 484.39 59.8438 484.709 60.4432 485.176C61.0426 485.642 61.5244 486.243 61.85 486.929C62.1729 487.617 62.3302 488.372 62.3092 489.132C62.2882 489.891 62.0894 490.636 61.7289 491.305L59.4578 495.501C59.2133 495.953 59.1147 496.469 59.1757 496.979C59.2367 497.49 59.4543 497.968 59.7984 498.349ZM74.0653 481.15C71.5049 475.722 73.8227 469.244 79.2419 466.68C84.6612 464.116 91.1299 466.437 93.6901 471.864C96.2505 477.292 93.9327 483.77 88.5135 486.334C83.0942 488.898 76.6257 486.577 74.0653 481.15Z" fill="#FFBC5A"></path></g><g clip-path="url(#clip9_198_4624)"><path d="M232.483 387.108C232.483 395.365 227.678 402.5 220.711 405.866C217.975 407.19 214.904 407.932 211.661 407.932C208.418 407.932 205.347 407.192 202.611 405.869C195.641 402.503 190.836 395.367 190.836 387.108C190.836 375.607 200.158 366.285 211.661 366.285C223.164 366.285 232.483 375.607 232.483 387.108Z" fill="#FF5C00"></path><g clip-path="url(#clip10_198_4624)"><path fill-rule="evenodd" clip-rule="evenodd" d="M223.403 398.829C218.389 403.726 210.961 404.785 204.883 402.04C203.986 401.688 198.179 403.258 196.919 402.029C195.659 400.798 197.269 395.128 196.907 394.252C194.095 388.318 195.181 381.063 200.196 376.167C206.599 369.913 217 369.913 223.403 376.167C229.819 382.43 229.805 392.577 223.403 398.829Z" fill="#FF5C00"></path><path fill-rule="evenodd" clip-rule="evenodd" d="M222.267 377.296C216.493 371.656 207.105 371.656 201.332 377.296C196.816 381.705 195.836 388.235 198.369 393.579C198.381 393.603 198.392 393.628 198.402 393.653C198.589 394.106 198.579 394.599 198.573 394.832C198.564 395.146 198.528 395.5 198.487 395.849C198.447 396.18 198.397 396.544 198.347 396.909L198.336 396.986C198.282 397.384 198.227 397.788 198.178 398.192C198.081 399.016 198.022 399.763 198.048 400.348C198.058 400.57 198.079 400.737 198.103 400.855C198.228 400.88 198.404 400.901 198.638 400.911C199.241 400.937 200.009 400.879 200.853 400.784C201.267 400.737 201.682 400.683 202.089 400.63L202.167 400.619C202.541 400.57 202.914 400.522 203.253 400.483C203.61 400.443 203.971 400.408 204.29 400.4C204.529 400.393 205.026 400.385 205.481 400.564C205.506 400.573 205.531 400.584 205.555 400.595C211.047 403.075 217.749 402.113 222.267 397.7C228.033 392.069 228.045 382.936 222.267 377.296ZM224.538 375.037C217.507 368.17 206.092 368.17 199.06 375.037L224.538 375.037ZM224.538 375.037C231.592 381.924 231.577 393.085 224.539 399.958C219.086 405.284 211.043 406.47 204.418 403.577C204.406 403.577 204.394 403.578 204.38 403.578C204.205 403.583 203.955 403.604 203.622 403.642C203.312 403.677 202.966 403.722 202.582 403.773L202.514 403.782C202.108 403.835 201.668 403.892 201.221 403.942C200.344 404.042 199.368 404.125 198.5 404.088C198.064 404.069 197.601 404.019 197.163 403.902C196.737 403.788 196.214 403.578 195.784 403.159L195.783 403.158C195.352 402.737 195.135 402.223 195.017 401.802C194.895 401.37 194.843 400.915 194.824 400.487C194.786 399.636 194.872 398.68 194.974 397.822C195.025 397.386 195.084 396.956 195.139 396.56L195.148 396.491C195.2 396.117 195.246 395.779 195.282 395.478C195.321 395.153 195.342 394.911 195.347 394.742C195.347 394.732 195.348 394.723 195.348 394.714C192.38 388.232 193.605 380.363 199.06 375.037" fill="#FF5C00"></path><g clip-path="url(#clip11_198_4624)"><path d="M223.373 383.28L212.969 380.131C212.402 379.959 211.791 379.959 211.224 380.131L200.82 383.28C199.942 383.546 199.942 384.69 200.82 384.956L202.633 385.505C202.235 385.99 201.991 386.581 201.967 387.229C201.607 387.431 201.354 387.797 201.354 388.234C201.354 388.631 201.566 388.964 201.871 389.177L200.919 393.399C200.836 393.766 201.12 394.115 201.501 394.115H203.594C203.976 394.115 204.26 393.766 204.177 393.399L203.225 389.177C203.53 388.964 203.742 388.631 203.742 388.234C203.742 387.809 203.5 387.453 203.157 387.247C203.186 386.695 203.472 386.207 203.929 385.897L211.224 388.106C211.562 388.208 212.21 388.335 212.969 388.106L223.373 384.956C224.252 384.69 224.252 383.546 223.373 383.28ZM213.319 389.23C212.255 389.552 211.349 389.374 210.873 389.23L205.464 387.593L204.935 391.763C204.935 393.062 208.141 394.115 212.096 394.115C216.052 394.115 219.258 393.062 219.258 391.763L218.729 387.592L213.319 389.23Z" fill="white"></path></g></g><path d="M211.66 409.895C199.095 409.895 188.874 399.673 188.874 387.109C188.874 374.544 199.095 364.322 211.66 364.322C224.224 364.322 234.446 374.544 234.446 387.109C234.446 399.673 224.224 409.895 211.66 409.895ZM211.66 368.246C201.259 368.246 192.797 376.708 192.797 387.109C192.797 397.51 201.259 405.971 211.66 405.971C222.06 405.971 230.523 397.509 230.523 387.109C230.523 376.708 222.061 368.246 211.66 368.246Z" fill="#18181B"></path></g><g clip-path="url(#clip12_198_4624)"><path d="M318.11 143.21L377.568 122.43L298.757 90.8086L217.409 122.497L277.878 143.21H318.11Z" fill="#FF730D"></path><path d="M318.11 145.92H277.878C277.579 145.92 277.281 145.87 276.998 145.773L216.53 125.06C216.005 124.88 215.547 124.543 215.22 124.095C214.892 123.647 214.71 123.109 214.699 122.554C214.687 121.999 214.847 121.455 215.155 120.993C215.464 120.532 215.907 120.176 216.424 119.975L297.772 88.2857C298.415 88.0354 299.128 88.0391 299.768 88.2958L378.578 119.917C379.09 120.123 379.527 120.479 379.831 120.939C380.135 121.399 380.291 121.941 380.279 122.492C380.266 123.043 380.086 123.577 379.761 124.023C379.437 124.469 378.984 124.805 378.463 124.987L319.006 145.768C318.718 145.868 318.415 145.92 318.11 145.92ZM278.33 140.503H317.65L369.858 122.256L298.742 93.7221L225.291 122.335L278.33 140.503Z" fill="#18181B"></path><path d="M297.642 147.544C321.845 147.544 341.929 155.654 345.775 161.554C346.088 161.02 346.442 131.056 346.442 130.391C346.442 123.51 324.594 114.32 297.642 114.32C270.691 114.32 248.842 123.51 248.842 130.391C248.842 130.965 248.949 161.215 249.359 161.801C252.799 155.78 273.104 147.544 297.642 147.544Z" fill="#FF730D"></path><path d="M249.358 164.509C248.922 164.509 248.492 164.404 248.105 164.203C247.718 164.001 247.386 163.709 247.136 163.352C246.512 162.46 246.399 162.299 246.236 146.119C246.159 138.524 246.131 130.807 246.131 130.391C246.131 123.942 256.212 119.374 262.222 117.225C272.346 113.606 284.925 111.612 297.642 111.612C310.359 111.612 322.939 113.606 333.063 117.225C339.072 119.374 349.153 123.941 349.153 130.391C349.153 130.728 349.065 138.35 348.936 146.068C348.67 161.973 348.585 162.118 348.115 162.922C347.881 163.321 347.55 163.653 347.152 163.888C346.753 164.122 346.302 164.251 345.84 164.262C345.377 164.273 344.92 164.166 344.511 163.951C344.102 163.736 343.755 163.42 343.503 163.033C340.596 158.573 322.283 150.253 297.642 150.253C272.69 150.253 254.213 158.768 251.713 163.144C251.476 163.558 251.133 163.903 250.719 164.143C250.306 164.383 249.836 164.509 249.358 164.509ZM297.642 117.029C285.707 117.029 273.463 118.959 264.049 122.325C254.608 125.701 251.553 129.217 251.553 130.391C251.553 132.883 251.629 147.59 251.795 155.816C260.434 149.998 278.176 144.836 297.642 144.836C308.83 144.836 320.385 146.585 330.179 149.76C335.57 151.508 340.071 153.562 343.322 155.713C343.533 147.131 343.73 131.378 343.731 130.39C343.731 129.217 340.677 125.701 331.235 122.325C321.821 118.959 309.577 117.029 297.642 117.029ZM372.806 157.699C372.087 157.699 371.397 157.413 370.889 156.905C370.38 156.398 370.095 155.709 370.095 154.99V122.666C370.095 121.947 370.38 121.258 370.889 120.751C371.397 120.243 372.087 119.957 372.806 119.957C373.525 119.957 374.214 120.243 374.723 120.751C375.231 121.258 375.517 121.947 375.517 122.666V154.99C375.517 155.709 375.231 156.398 374.723 156.905C374.214 157.413 373.525 157.699 372.806 157.699ZM372.929 160.419C374.77 160.419 376.264 161.911 376.264 163.75V183.12H369.595V163.75C369.595 161.911 371.089 160.419 372.929 160.419Z" fill="#18181B"></path><path d="M376.264 185.829H369.595C368.876 185.829 368.186 185.543 367.678 185.035C367.169 184.528 366.884 183.839 366.884 183.12V163.75C366.884 160.42 369.596 157.711 372.93 157.711C376.264 157.711 378.975 160.42 378.975 163.75V183.12C378.975 183.839 378.689 184.528 378.181 185.035C377.673 185.543 376.983 185.829 376.264 185.829ZM372.306 180.412H373.553V163.75C373.549 163.588 373.481 163.433 373.365 163.32C373.248 163.206 373.092 163.142 372.929 163.142C372.767 163.142 372.61 163.206 372.494 163.32C372.377 163.433 372.31 163.588 372.306 163.75V180.412Z" fill="#18181B"></path><path d="M372.806 158.198C374.442 158.198 375.769 156.873 375.769 155.237C375.769 153.602 374.442 152.276 372.806 152.276C371.169 152.276 369.842 153.602 369.842 155.237C369.842 156.873 371.169 158.198 372.806 158.198Z" fill="#18181B"></path><path d="M372.806 160.907C369.676 160.907 367.131 158.364 367.131 155.238C367.131 152.112 369.676 149.568 372.806 149.568C375.935 149.568 378.481 152.112 378.481 155.238C378.481 158.364 375.935 160.907 372.806 160.907ZM372.806 154.985C372.773 154.985 372.74 154.992 372.709 155.004C372.678 155.017 372.65 155.036 372.627 155.059C372.603 155.083 372.585 155.11 372.572 155.141C372.559 155.172 372.553 155.205 372.553 155.238C372.553 155.271 372.56 155.304 372.572 155.335C372.585 155.365 372.604 155.393 372.627 155.417C372.651 155.44 372.679 155.459 372.709 155.471C372.74 155.484 372.773 155.491 372.806 155.49C372.873 155.49 372.938 155.464 372.985 155.416C373.032 155.369 373.059 155.305 373.059 155.238C373.059 155.17 373.032 155.106 372.985 155.059C372.937 155.011 372.873 154.985 372.806 154.985Z" fill="#18181B"></path></g><defs><clipPath id="clip0_198_4624"><rect width="142.795" height="148.365" fill="white" transform="translate(351.903 391.887) rotate(-23.3659)"></rect></clipPath><clipPath id="clip1_198_4624"><rect width="98.7409" height="187.101" fill="white" transform="translate(26.7573 357.481) rotate(-34.8934)"></rect></clipPath><clipPath id="clip2_198_4624"><rect width="253.941" height="463.829" fill="white" transform="translate(159.251 47.0859)"></rect></clipPath><clipPath id="clip3_198_4624"><rect width="187.101" height="142.541" fill="white" transform="translate(202.799 139.497)"></rect></clipPath><clipPath id="clip4_198_4624"><rect width="89.8795" height="89.8795" fill="white" transform="translate(386.102 81.7715)"></rect></clipPath><clipPath id="clip5_198_4624"><rect width="192.671" height="41.775" fill="white" transform="translate(208.369 306.597)"></rect></clipPath><clipPath id="clip6_198_4624"><rect width="130.135" height="41.775" fill="white" transform="translate(237.484 367.613)"></rect></clipPath><clipPath id="clip7_198_4624"><rect width="212.42" height="42.0282" fill="white" transform="translate(189.38 427.618)"></rect></clipPath><clipPath id="clip8_198_4624"><rect width="65.0677" height="63.8018" fill="white" transform="translate(51.396 444.581)"></rect></clipPath><clipPath id="clip9_198_4624"><rect width="45.5727" height="45.5727" fill="white" transform="translate(188.874 364.322)"></rect></clipPath><clipPath id="clip10_198_4624"><rect width="37" height="36" fill="white" transform="translate(193 369.5)"></rect></clipPath><clipPath id="clip11_198_4624"><rect width="23.871" height="18.8168" fill="white" transform="translate(200.161 377.65)"></rect></clipPath><clipPath id="clip12_198_4624"><rect width="165.581" height="97.7282" fill="white" transform="translate(214.698 88.1006)"></rect></clipPath></defs></svg>