<svg xmlns="http://www.w3.org/2000/svg" width="53" height="61" viewBox="0 0 53 61" fill="none"><g clip-path="url(#clip0_198_4723)"><path d="M28.3645 2.44043C28.4148 3.32091 28.4404 4.27289 28.4285 5.27665C29.3739 25.7552 40.5999 31.0913 48.6444 31.2819C49.2739 31.2458 49.9226 31.2274 50.5909 31.2274C49.9696 31.2777 49.3181 31.2979 48.6444 31.2819C30.9922 32.293 28.3413 47.1322 28.3208 56.3542C28.3499 57.0679 28.3645 57.803 28.3645 58.5604C28.3362 57.8729 28.3191 57.1336 28.3208 56.3542C27.5651 37.7778 17.0802 33.7475 2.40918 31.2274C24.254 31.2274 28.3065 15.5435 28.4285 5.27665C28.3863 4.36176 28.3645 3.41665 28.3645 2.44043Z" fill="#FFD8A6"></path><path fill-rule="evenodd" clip-rule="evenodd" d="M28.295 0.00103551C29.5979 -0.0370735 30.6944 0.98126 30.7696 2.2992C30.8217 3.21119 30.8488 4.19506 30.8382 5.23204C31.3009 14.9853 34.1808 20.7752 37.5641 24.1478C40.9418 27.5146 45.0859 28.7372 48.6094 28.8397C49.2538 28.8047 49.9142 28.7869 50.5909 28.7869C51.884 28.7869 52.9464 29.8209 52.998 31.1295C53.0497 32.4382 52.072 33.5547 50.7831 33.6592C50.1109 33.7137 49.4104 33.7367 48.689 33.723C40.7119 34.2046 36.3987 37.7169 33.9519 41.9675C31.4058 46.3906 30.7449 51.8691 30.7301 56.3075C30.7591 57.0391 30.7736 57.7898 30.7736 58.56C30.7736 59.8877 29.7255 60.9717 28.4149 60.9995C27.1043 61.0272 26.0123 59.9885 25.9576 58.6619C25.9285 57.9584 25.9107 57.2014 25.9117 56.4026C25.5459 47.6438 22.9341 42.7635 19.0887 39.683C15.0649 36.4596 9.33187 34.891 2.00636 33.6326C0.771847 33.4205 -0.096456 32.286 0.00860242 31.0222C0.113661 29.7585 1.15705 28.7869 2.40919 28.7869C12.6873 28.7869 18.3838 25.1422 21.6205 20.661C24.9426 16.0616 25.9519 10.1959 26.0187 5.31669C25.9769 4.38552 25.9555 3.42688 25.9555 2.44002C25.9555 1.11987 26.9921 0.0391443 28.295 0.00103551ZM28.4026 18.2867C27.6624 20.0979 26.7145 21.8736 25.5092 23.5423C22.9808 27.0429 19.4163 29.94 14.5388 31.7255C17.3178 32.7597 19.8658 34.0836 22.0777 35.8555C24.5583 37.8427 26.5379 40.3233 27.9779 43.4208C28.4658 42.0873 29.0624 40.7727 29.7895 39.5096C31.784 36.0448 34.7086 33.0617 38.848 31.1281C37.2316 30.2407 35.6539 29.0906 34.1845 27.6259C31.838 25.2869 29.8413 22.2193 28.4026 18.2867Z" fill="#18181B"></path></g><defs><clipPath id="clip0_198_4723"><rect width="53" height="61" fill="white"></rect></clipPath></defs></svg>