<svg xmlns="http://www.w3.org/2000/svg" width="43" height="50" viewBox="0 0 43 50" fill="none"><g clip-path="url(#clip0_198_4724)"><path d="M23.0127 2C23.0535 2.72171 23.0743 3.50202 23.0646 4.32477C23.8317 21.1104 32.9395 25.4843 39.4661 25.6405C39.9769 25.611 40.5032 25.5958 41.0454 25.5958C40.5414 25.6371 40.0128 25.6536 39.4661 25.6405C25.1446 26.4693 22.9939 38.6326 22.9772 46.1916C23.0008 46.7766 23.0127 47.3792 23.0127 48C22.9897 47.4365 22.9758 46.8305 22.9772 46.1916C22.3641 30.965 13.8575 27.6616 1.95459 25.5958C19.6777 25.5958 22.9656 12.7402 23.0646 4.32477C23.0303 3.57486 23.0127 2.80018 23.0127 2Z" fill="#FFCBF4"></path><path fill-rule="evenodd" clip-rule="evenodd" d="M22.9563 0.00084878C24.0134 -0.0303881 24.903 0.804311 24.964 1.88459C25.0063 2.63212 25.0283 3.43858 25.0197 4.28856C25.3951 12.283 27.7316 17.0289 30.4766 19.7933C33.2169 22.553 36.5792 23.5551 39.4378 23.6391C39.9606 23.6104 40.4964 23.5959 41.0454 23.5959C42.0945 23.5959 42.9565 24.4434 42.9984 25.516C43.0403 26.5887 42.2471 27.5038 41.2014 27.5895C40.656 27.6341 40.0877 27.653 39.5024 27.6418C33.0304 28.0366 29.531 30.9155 27.5459 34.3996C25.4802 38.0251 24.944 42.5156 24.9319 46.1537C24.9555 46.7534 24.9673 47.3687 24.9673 48C24.9673 49.0883 24.1169 49.9768 23.0536 49.9996C21.9903 50.0223 21.1044 49.1709 21.0599 48.0836C21.0364 47.5068 21.0219 46.8864 21.0227 46.2316C20.7259 39.0523 18.6069 35.0521 15.4871 32.5271C12.2225 29.8849 7.57114 28.5991 1.6278 27.5677C0.626215 27.3939 -0.0782567 26.4639 0.00697932 25.4281C0.0922154 24.3922 0.938739 23.5959 1.95463 23.5959C10.2935 23.5959 14.9152 20.6084 17.5412 16.9353C20.2364 13.1653 21.0553 8.3573 21.1095 4.35794C21.0756 3.59469 21.0582 2.80892 21.0582 2.00001C21.0582 0.917928 21.8993 0.0320855 22.9563 0.00084878ZM23.0436 14.9891C22.443 16.4736 21.674 17.9292 20.6962 19.297C18.6448 22.1663 15.7528 24.541 11.7956 26.0045C14.0503 26.8522 16.1176 27.9374 17.9121 29.3898C19.9246 31.0186 21.5308 33.0519 22.6991 35.5908C23.0949 34.4978 23.579 33.4202 24.1689 32.3849C25.787 29.5449 28.1598 27.0998 31.5182 25.5149C30.2068 24.7875 28.9268 23.8448 27.7346 22.6442C25.8308 20.727 24.2109 18.2125 23.0436 14.9891Z" fill="#18181B"></path></g><defs><clipPath id="clip0_198_4724"><rect width="43" height="50" fill="white"></rect></clipPath></defs></svg>