<svg xmlns="http://www.w3.org/2000/svg" width="132" height="82" viewBox="0 0 132 82" fill="none"><path fill-rule="evenodd" clip-rule="evenodd" d="M123.835 81.8428C124.888 82.1773 126.012 81.5952 126.347 80.5425L131.798 63.3879C132.133 62.3352 131.551 61.2107 130.498 60.8761C129.445 60.5416 128.321 61.1237 127.986 62.1764L123.96 74.8446C113.26 55.8872 99.232 42.2045 86.0361 36.0425C85.86 35.2511 85.6703 34.4457 85.4666 33.626C82.5602 21.9302 76.8286 13.5578 69.5056 8.13138C62.1981 2.71641 53.4372 0.331155 44.6111 0.3685C27.0501 0.442796 8.83325 10.1227 0.56989 25.4034C0.0444736 26.375 0.406183 27.5886 1.37778 28.114C2.34939 28.6394 3.56296 28.2777 4.08837 27.3061C11.5673 13.4761 28.3337 4.4374 44.628 4.36846C52.7295 4.33418 60.6141 6.52116 67.1241 11.3452C73.5421 16.101 78.7521 23.514 81.4879 34.2069C75.8043 32.2809 70.2765 31.8205 65.319 33.1702C59.0758 34.8698 54.0534 39.3549 50.9124 46.6363C47.9637 53.4721 49.6951 59.9732 53.5796 64.7526C57.413 69.4691 63.4108 72.6222 69.3585 73.0142C75.4109 73.4131 81.4825 70.9314 84.9423 64.3516C87.7046 59.0983 88.6801 51.4572 86.9935 41.0073C98.4411 47.2391 110.678 59.5535 120.317 76.5276L107.892 72.5789C106.839 72.2444 105.715 72.8265 105.38 73.8792C105.046 74.9319 105.628 76.0565 106.68 76.391L123.835 81.8428ZM82.5454 38.8756C84.8253 50.3562 83.8216 57.8883 81.4019 62.49C78.7774 67.4814 74.3219 69.3327 69.6216 69.0228C64.8167 68.7061 59.8365 66.1088 56.6837 62.2297C53.582 58.4136 52.3191 53.474 54.5853 48.2206C57.319 41.8833 61.4726 38.3629 66.3697 37.0297C70.9766 35.7755 76.5114 36.385 82.5454 38.8756Z" fill="#18181B"></path></svg>